# xmcd
#
# Track frame offsets:
#	150
#	19962
#	44371
#	67369
#	92252
#	110586
#	143091
#	160543
#	182615
#	206874
#	230142
#
# Disc length: 3370 seconds
#
# Revision: 0
# Processed by: cddbd v1.5.2PL0 Copyright (c) Steve Scherf et al.
# Submitted via: EasyCDDAExtractor 9.0.0.1
#
DISCID=9a0d280b
DTITLE=Leela James - Let's Do It Again
DYEAR=2009
DGENRE=Soul
TTITLE0=Clean Up Woman
TTITLE1=Miss You
TTITLE2=It's A Man's Man's World
TTITLE3=Baby I'm scared of You
TTITLE4=You Know How To Love Me
TTITLE5=I Want To Know What Love Is
TTITLE6=Nobody Knows You When You're Down And Out
TTITLE7=I Try
TTITLE8=I'd Rather Be With You
TTITLE9=Simply Beautiful
TTITLE10=Let's Do It Again
EXTD=
EXTT0=
EXTT1=
EXTT2=
EXTT3=
EXTT4=
EXTT5=
EXTT6=
EXTT7=
EXTT8=
EXTT9=
EXTT10=
PLAYORDER=
